<svg xmlns="http://www.w3.org/2000/svg" width="480" height="240" viewBox="0 0 480 240" role="img" aria-label="Wagensuche">
  <defs>
    <linearGradient id="bg" x1="40" y1="30" x2="440" y2="210" gradientUnits="userSpaceOnUse">
      <stop offset="0" stop-color="#0C3B2E"/>
      <stop offset="0.55" stop-color="#1E8A62"/>
      <stop offset="1" stop-color="#43D9A0"/>
    </linearGradient>
    <filter id="shadow" x="-20%" y="-20%" width="140%" height="140%">
      <feDropShadow dx="0" dy="6" stdDeviation="6" flood-color="#06122A" flood-opacity="0.22"/>
    </filter>
    <linearGradient id="glass" x1="0" y1="0" x2="1" y2="1">
      <stop offset="0" stop-color="#FFFFFF" stop-opacity="0.85"/>
      <stop offset="1" stop-color="#CFEDE4" stop-opacity="0.4"/>
    </linearGradient>
  </defs>

  <rect x="0" y="0" width="480" height="240" fill="url(#bg)"/>

  <g filter="url(#shadow)">
    <rect x="78" y="92" width="230" height="70" rx="12" fill="#F6F7FB" stroke="#0B2447" stroke-width="4"/>
    <rect x="98" y="108" width="54" height="30" rx="6" fill="#DCE6F5"/>
    <rect x="160" y="108" width="54" height="30" rx="6" fill="#DCE6F5"/>
    <rect x="222" y="108" width="54" height="30" rx="6" fill="#DCE6F5"/>
    <rect x="78" y="156" width="230" height="10" fill="#0B2447" opacity="0.85"/>
    <circle cx="130" cy="174" r="16" fill="#0B2447"/>
    <circle cx="130" cy="174" r="7" fill="#F6F7FB"/>
    <circle cx="255" cy="174" r="16" fill="#0B2447"/>
    <circle cx="255" cy="174" r="7" fill="#F6F7FB"/>
  </g>

  <g filter="url(#shadow)">
    <circle cx="330" cy="118" r="36" fill="url(#glass)" stroke="#FFFFFF" stroke-width="6"/>
    <path d="M356 144 L396 182" stroke="#FFFFFF" stroke-width="10" stroke-linecap="round"/>
    <path d="M326 104 L344 122" stroke="#0B2447" stroke-opacity="0.2" stroke-width="4" stroke-linecap="round"/>
    <circle cx="330" cy="118" r="18" fill="none" stroke="#FFFFFF" stroke-opacity="0.5" stroke-width="3"/>
  </g>

  <g stroke="#FFFFFF" stroke-opacity="0.15" stroke-width="6" stroke-linecap="round">
    <path d="M40 46 L210 46"/>
    <path d="M270 200 L440 200"/>
  </g>
</svg>
